<?xml version="1.0" encoding="utf-8"?>
<!-- Generator: Adobe Illustrator 19.0.0, SVG Export Plug-In . SVG Version: 6.00 Build 0)  -->
<svg version="1.1" xmlns="http://www.w3.org/2000/svg" xmlns:xlink="http://www.w3.org/1999/xlink" x="0px" y="0px"
	 viewBox="0 0 128 128" style="enable-background:new 0 0 128 128;" xml:space="preserve">
<style type="text/css">
	.st0{fill:#FFFFFF;}
</style>
<g id="DevTools_Icon">
	<g id="XMLID_6_">
		<g id="XMLID_39_">
			<path id="XMLID_48_" class="st0" d="M94.1,64c-0.3,12.6-7.8,24.1-19.8,28.5c-12,4.4-25.6,0.8-33.9-8.9
				C22.4,62.3,41.8,29,69.2,34.1C83.7,36.7,93.8,49.5,94.1,64c0.1,3.2,5.1,3.2,5,0c-0.3-14.6-9.1-27.8-22.9-33.1
				c-13.9-5.3-30.3-1-39.8,10.5c-9.4,11.3-10.8,27.8-3.4,40.5c7.4,12.7,22.3,19.5,36.7,17C86.8,96,98.8,81,99.1,64
				C99.2,60.8,94.2,60.8,94.1,64z"/>
		</g>
	</g>
	<g id="XMLID_7_">
		<g id="XMLID_83_">
			<path id="XMLID_87_" class="st0" d="M90.1,34.3c-1.4,1.4-2.8,2.8-4.1,4.1c-1,1-1,2.6,0,3.5c1,1,2.6,1,3.5,0
				c1.4-1.4,2.8-2.8,4.1-4.1c1-1,1-2.6,0-3.5C92.7,33.4,91.1,33.4,90.1,34.3L90.1,34.3z"/>
		</g>
	</g>
	<g id="XMLID_8_">
		<g id="XMLID_77_">
			<path id="XMLID_81_" class="st0" d="M38.4,86.1c-1.4,1.4-2.7,2.7-4.1,4.1c-1,1-1,2.6,0,3.5c1,1,2.6,1,3.5,0
				c1.4-1.4,2.7-2.7,4.1-4.1c1-1,1-2.6,0-3.5C41,85.1,39.4,85.1,38.4,86.1L38.4,86.1z"/>
		</g>
	</g>
	<g id="XMLID_9_">
		<g id="XMLID_71_">
			<path id="XMLID_75_" class="st0" d="M61.5,24.5c0,2,0,4.1,0,6.1c0,3.2,5,3.2,5,0c0-2,0-4.1,0-6.1C66.5,21.3,61.5,21.3,61.5,24.5
				L61.5,24.5z"/>
		</g>
	</g>
	<g id="XMLID_10_">
		<g id="XMLID_65_">
			<path id="XMLID_69_" class="st0" d="M61.5,97.1c0,2.1,0,4.3,0,6.4c0,3.2,5,3.2,5,0c0-2.1,0-4.3,0-6.4
				C66.5,93.9,61.5,93.9,61.5,97.1L61.5,97.1z"/>
		</g>
	</g>
	<g id="XMLID_11_">
		<g id="XMLID_59_">
			<path id="XMLID_63_" class="st0" d="M97.3,66.4c2.1,0,4.1,0,6.2,0c3.2,0,3.2-5,0-5c-2.1,0-4.1,0-6.2,0
				C94.1,61.4,94.1,66.4,97.3,66.4L97.3,66.4z"/>
		</g>
	</g>
	<g id="XMLID_12_">
		<g id="XMLID_53_">
			<path id="XMLID_57_" class="st0" d="M24.5,66.4c2.1,0,4.2,0,6.3,0c3.2,0,3.2-5,0-5c-2.1,0-4.2,0-6.3,0
				C21.3,61.4,21.3,66.4,24.5,66.4L24.5,66.4z"/>
		</g>
	</g>
	<g id="XMLID_24_">
		<g id="XMLID_46_">
			<path id="XMLID_51_" class="st0" d="M34.3,37.9c1.5,1.5,3,3,4.5,4.5c2.3,2.3,5.8-1.3,3.5-3.5c-1.5-1.5-3-3-4.5-4.5
				C35.6,32,32,35.6,34.3,37.9L34.3,37.9z"/>
		</g>
	</g>
	<g id="XMLID_33_">
		<g id="XMLID_36_">
			<path id="XMLID_44_" class="st0" d="M86,89.5c1.4,1.4,2.8,2.8,4.1,4.1c1,1,2.6,1,3.5,0c1-1,1-2.6,0-3.5c-1.4-1.4-2.8-2.8-4.1-4.1
				c-1-1-2.6-1-3.5,0C85.1,87,85.1,88.6,86,89.5L86,89.5z"/>
		</g>
	</g>
</g>
</svg>
