<?xml version="1.0" encoding="utf-8"?>
<!-- Generator: Adobe Illustrator 19.0.0, SVG Export Plug-In . SVG Version: 6.00 Build 0)  -->
<svg version="1.1" id="Layer_1" xmlns="http://www.w3.org/2000/svg" xmlns:xlink="http://www.w3.org/1999/xlink" x="0px" y="0px"
	 viewBox="-241 333 128 128" style="enable-background:new -241 333 128 128;" xml:space="preserve">
<style type="text/css">
	.st0{fill:#4C4C4C;stroke:#4C4C4C;stroke-width:3;stroke-miterlimit:10;}
</style>
<g id="DevTools_Icon">
	<g id="XMLID_6_">
		<g id="XMLID_39_">
			<path id="XMLID_48_" class="st0" d="M-146.9,397c-0.3,12.6-7.8,24.1-19.8,28.5c-12,4.4-25.6,0.8-33.9-8.9
				c-18-21.3,1.4-54.6,28.8-49.5C-157.3,369.7-147.2,382.5-146.9,397c0.1,3.2,5.1,3.2,5,0c-0.3-14.6-9.1-27.8-22.9-33.1
				c-13.9-5.3-30.3-1-39.8,10.5c-9.4,11.3-10.8,27.8-3.4,40.5c7.4,12.7,22.3,19.5,36.7,17c17.1-2.9,29.1-17.9,29.4-34.9
				C-141.8,393.8-146.8,393.8-146.9,397z"/>
		</g>
	</g>
	<g id="XMLID_7_">
		<g id="XMLID_83_">
			<path id="XMLID_87_" class="st0" d="M-150.9,367.3c-1.4,1.4-2.8,2.8-4.1,4.1c-1,1-1,2.6,0,3.5c1,1,2.6,1,3.5,0
				c1.4-1.4,2.8-2.8,4.1-4.1c1-1,1-2.6,0-3.5C-148.3,366.4-149.9,366.4-150.9,367.3L-150.9,367.3z"/>
		</g>
	</g>
	<g id="XMLID_8_">
		<g id="XMLID_77_">
			<path id="XMLID_81_" class="st0" d="M-202.6,419.1c-1.4,1.4-2.7,2.7-4.1,4.1c-1,1-1,2.6,0,3.5c1,1,2.6,1,3.5,0
				c1.4-1.4,2.7-2.7,4.1-4.1c1-1,1-2.6,0-3.5C-200,418.1-201.6,418.1-202.6,419.1L-202.6,419.1z"/>
		</g>
	</g>
	<g id="XMLID_9_">
		<g id="XMLID_71_">
			<path id="XMLID_75_" class="st0" d="M-179.5,357.5c0,2,0,4.1,0,6.1c0,3.2,5,3.2,5,0c0-2,0-4.1,0-6.1
				C-174.5,354.3-179.5,354.3-179.5,357.5L-179.5,357.5z"/>
		</g>
	</g>
	<g id="XMLID_10_">
		<g id="XMLID_65_">
			<path id="XMLID_69_" class="st0" d="M-179.5,430.1c0,2.1,0,4.3,0,6.4c0,3.2,5,3.2,5,0c0-2.1,0-4.3,0-6.4
				C-174.5,426.9-179.5,426.9-179.5,430.1L-179.5,430.1z"/>
		</g>
	</g>
	<g id="XMLID_11_">
		<g id="XMLID_59_">
			<path id="XMLID_63_" class="st0" d="M-143.7,399.4c2.1,0,4.1,0,6.2,0c3.2,0,3.2-5,0-5c-2.1,0-4.1,0-6.2,0
				C-146.9,394.4-146.9,399.4-143.7,399.4L-143.7,399.4z"/>
		</g>
	</g>
	<g id="XMLID_12_">
		<g id="XMLID_53_">
			<path id="XMLID_57_" class="st0" d="M-216.5,399.4c2.1,0,4.2,0,6.3,0c3.2,0,3.2-5,0-5c-2.1,0-4.2,0-6.3,0
				C-219.7,394.4-219.7,399.4-216.5,399.4L-216.5,399.4z"/>
		</g>
	</g>
	<g id="XMLID_24_">
		<g id="XMLID_46_">
			<path id="XMLID_51_" class="st0" d="M-206.7,370.9c1.5,1.5,3,3,4.5,4.5c2.3,2.3,5.8-1.3,3.5-3.5c-1.5-1.5-3-3-4.5-4.5
				C-205.4,365-209,368.6-206.7,370.9L-206.7,370.9z"/>
		</g>
	</g>
	<g id="XMLID_33_">
		<g id="XMLID_36_">
			<path id="XMLID_44_" class="st0" d="M-155,422.5c1.4,1.4,2.8,2.8,4.1,4.1c1,1,2.6,1,3.5,0c1-1,1-2.6,0-3.5
				c-1.4-1.4-2.8-2.8-4.1-4.1c-1-1-2.6-1-3.5,0S-155.9,421.6-155,422.5L-155,422.5z"/>
		</g>
	</g>
</g>
</svg>
