<?xml version="1.0" encoding="utf-8"?>
<!-- Generator: Adobe Illustrator 19.0.0, SVG Export Plug-In . SVG Version: 6.00 Build 0)  -->
<svg version="1.1" id="Layer_2" xmlns="http://www.w3.org/2000/svg" xmlns:xlink="http://www.w3.org/1999/xlink" x="0px" y="0px"
	 viewBox="0 0 512 512" style="enable-background:new 0 0 512 512;" xml:space="preserve">
<style type="text/css">
	.st0{fill:#CA9A2C;stroke:#000000;stroke-width:3;stroke-miterlimit:10;}
</style>
<polygon id="XMLID_2_" class="st0" points="31.3,171.1 73,171.1 73,318.1 31.3,340.9 "/>
<polygon id="XMLID_6_" class="st0" points="139.3,181.5 278.3,181.5 246.6,208.3 147.2,208.3 147.2,296.7 231.7,296.7 231.7,266.4 
	203.9,266.4 177,239.1 278.3,239.1 278.3,296.7 244.6,330.5 139.3,330.5 105,296.2 105,216.3 "/>
<polygon id="XMLID_3_" class="st0" points="342.7,181.5 480.7,181.5 450.9,211.3 352.6,211.3 352.6,295.7 480.7,295.7 445.9,330.5 
	342.7,330.5 306.9,294.7 306.9,215.3 "/>
</svg>
