<?xml version="1.0" encoding="utf-8"?>
<!-- Generator: Adobe Illustrator 19.0.0, SVG Export Plug-In . SVG Version: 6.00 Build 0)  -->
<svg version="1.1" id="Layer_2" xmlns="http://www.w3.org/2000/svg" xmlns:xlink="http://www.w3.org/1999/xlink" x="0px" y="0px"
	 viewBox="0 0 512 512" style="enable-background:new 0 0 512 512;" xml:space="preserve">
<style type="text/css">
	.st0{fill:#FFFFFF;stroke:#000000;stroke-width:3;stroke-miterlimit:10;}
	.st1{fill:#FFDE17;}
	.st2{font-family:'TwCenMT-CondensedExtraBold';}
	.st3{font-size:100px;}
</style>
<polygon id="XMLID_2_" class="st0" points="31.3,129.1 73,129.1 73,276.1 31.3,298.9 "/>
<polygon id="XMLID_6_" class="st0" points="139.3,139.5 278.3,139.5 246.6,166.3 147.2,166.3 147.2,254.7 231.7,254.7 231.7,224.4 
	203.9,224.4 177,197.1 278.3,197.1 278.3,254.7 244.6,288.5 139.3,288.5 105,254.2 105,174.3 "/>
<polygon id="XMLID_3_" class="st0" points="342.7,139.5 480.7,139.5 450.9,169.3 352.6,169.3 352.6,253.7 480.7,253.7 445.9,288.5 
	342.7,288.5 306.9,252.7 306.9,173.3 "/>
<text id="XMLID_1_" transform="matrix(1 0 0 1 91.7912 376.0653)" class="st1 st2 st3">ROYALTY</text>
</svg>
