<?xml version="1.0" encoding="utf-8"?>
<!-- Generator: Adobe Illustrator 19.0.0, SVG Export Plug-In . SVG Version: 6.00 Build 0)  -->
<svg version="1.1" id="Layer_1" xmlns="http://www.w3.org/2000/svg" xmlns:xlink="http://www.w3.org/1999/xlink" x="0px" y="0px"
	 viewBox="0 0 512 512" style="enable-background:new 0 0 512 512;" xml:space="preserve">
<style type="text/css">
	.st0{fill:#939598;}
	.st1{fill:#BCBEC0;}
	.st2{fill:none;stroke:#000000;stroke-width:4;stroke-miterlimit:10;}
</style>
<g id="C">
	<polygon id="XMLID_5_" class="st0" points="480.7,295.7 445.9,330.5 342.7,330.5 306.9,294.7 352.6,268.3 352.6,295.7 	"/>
	<polygon id="XMLID_8_" class="st1" points="480.7,181.5 450.9,211.3 352.6,211.3 352.6,268.3 306.9,294.7 306.9,215.3 342.7,181.5 
			"/>
	<polygon id="XMLID_3_" class="st2" points="342.7,181.5 480.7,181.5 450.9,211.3 352.6,211.3 352.6,295.7 480.7,295.7 445.9,330.5 
		342.7,330.5 306.9,294.7 306.9,215.3 	"/>
</g>
<g id="G">
	<polygon id="XMLID_10_" class="st0" points="126.1,317.3 139.3,330.5 244.6,330.5 278.3,296.7 278.3,239.1 213.7,239.1 
		194.2,256.6 203.9,266.4 231.7,266.4 231.7,296.7 147.2,296.7 	"/>
	<polygon id="XMLID_7_" class="st1" points="126.1,317.3 105,296.2 105,216.3 139.3,181.5 278.3,181.5 246.6,208.3 147.2,208.3 
		147.2,296.7 	"/>
	<polygon id="XMLID_11_" class="st1" points="177,239.1 213.7,239.1 194.2,256.6 	"/>
	<polygon id="XMLID_6_" class="st2" points="139.3,181.5 278.3,181.5 246.6,208.3 147.2,208.3 147.2,296.7 231.7,296.7 231.7,266.4 
		203.9,266.4 177,239.1 278.3,239.1 278.3,296.7 244.6,330.5 139.3,330.5 105,296.2 105,216.3 	"/>
</g>
<g id="I">
	<polygon id="XMLID_1_" class="st0" points="31.3,171.1 73,171.1 73,318.1 31.3,340.9 	"/>
	<polygon id="XMLID_4_" class="st1" points="73,171.1 31.3,340.9 31.3,171.1 	"/>
	<polygon id="XMLID_2_" class="st2" points="31.3,171.1 73,171.1 73,318.1 31.3,340.9 	"/>
</g>
</svg>
